<svg width="75" height="19" viewBox="0 0 75 19" fill="none" xmlns="http://www.w3.org/2000/svg">
<path d="M40.3015 7.20449C40.2995 9.86647 38.6052 12.2288 36.0947 13.07C36.0007 13.0991 35.8987 13.0831 35.8179 13.0266C35.7372 12.9676 35.6893 12.8734 35.6888 12.773V11.121C35.7021 10.676 35.5959 10.2357 35.3813 9.84643C35.3488 9.79553 35.3488 9.73027 35.3813 9.67937C35.4062 9.63243 35.4519 9.60026 35.5043 9.59275C37.0049 9.43807 37.8414 8.83791 37.8414 7.20449C37.8776 6.44183 37.6148 5.69534 37.1095 5.12559C37.1832 4.88491 37.2225 4.63493 37.2264 4.38313C37.2237 4.15737 37.1927 3.93285 37.1341 3.71491C37.0954 3.56958 36.9567 3.47477 36.8081 3.49217C36.2446 3.57263 35.7201 3.82784 35.3075 4.22226C34.5437 4.0738 33.7587 4.0738 32.995 4.22226C32.5824 3.82784 32.0578 3.57263 31.4943 3.49217C31.3457 3.47477 31.207 3.56958 31.1683 3.71491C31.1097 3.93285 31.0787 4.15737 31.0761 4.38313C31.0799 4.63493 31.1192 4.88491 31.1929 5.12559C30.6877 5.69534 30.4249 6.44183 30.461 7.20449C30.461 8.92453 31.3897 9.49994 33.0934 9.64225C32.8819 9.92104 32.7367 10.2449 32.669 10.5889C32.669 10.5889 32.669 10.6322 32.669 10.6631C32.666 10.6919 32.666 10.721 32.669 10.7498C32.6434 10.9443 32.4695 11.0836 32.2754 11.0653C32.1828 11.0609 32.0924 11.0355 32.0109 10.9911C31.6758 10.7858 31.3801 10.5217 31.1376 10.2115C30.9831 10.0352 30.8188 9.86791 30.6455 9.71031C30.5354 9.61444 30.4135 9.53333 30.2827 9.46901C30.191 9.4172 30.0791 9.4172 29.9875 9.46901C29.8995 9.5258 29.8462 9.62369 29.846 9.72887V9.76599C29.8462 9.87117 29.8995 9.96906 29.9875 10.0259C30.2082 10.2118 30.3991 10.4309 30.5533 10.6755C30.8137 11.086 31.1448 11.4464 31.5312 11.7397C31.7857 11.9114 32.0858 12.0019 32.3922 11.9996H32.6136V12.773C32.6132 12.8734 32.5652 12.9676 32.4845 13.0266C32.4037 13.0831 32.3017 13.0991 32.2077 13.07C29.2261 12.0709 27.4727 8.97124 28.142 5.88223C28.8112 2.79322 31.6877 0.70866 34.8122 1.04842C37.9366 1.38819 40.3039 4.04296 40.3015 7.20449Z" fill="#555555"/>
<path fill-rule="evenodd" clip-rule="evenodd" d="M0 2.43237C0 1.64804 0.632066 1.01221 1.41176 1.01221C1.78618 1.01221 2.14527 1.16183 2.41002 1.42816C2.67478 1.6945 2.82352 2.05572 2.82352 2.43237C2.82352 3.21671 2.19145 3.85254 1.41176 3.85254C0.632066 3.85254 0 3.21671 0 2.43237ZM12.3545 8.40458C12.3789 6.86712 11.3362 5.51983 9.84866 5.16647C8.85177 4.95052 7.81267 5.23369 7.06043 5.92629V5.62804C7.06043 5.43195 6.90241 5.27298 6.70749 5.27298H4.94278C4.74786 5.27298 4.58984 5.43195 4.58984 5.62804V12.7292C4.58984 12.9253 4.74786 13.0842 4.94278 13.0842H6.70749C6.90241 13.0842 7.06043 12.9253 7.06043 12.7292V8.72413C7.043 8.01098 7.53707 7.38818 8.23219 7.2471C8.64608 7.17522 9.0703 7.29248 9.38959 7.56701C9.70887 7.84154 9.89007 8.24483 9.88395 8.66732V12.7292C9.88395 12.9253 10.042 13.0842 10.2369 13.0842H12.0016C12.1965 13.0842 12.3545 12.9253 12.3545 12.7292V8.40458ZM2.82214 5.62777V12.7292C2.82214 12.9253 2.66413 13.0842 2.4692 13.0842H0.704503C0.509579 13.0842 0.351562 12.9253 0.351562 12.7292V5.62777C0.351562 5.43167 0.509579 5.27271 0.704503 5.27271H2.4692C2.66413 5.27271 2.82214 5.43167 2.82214 5.62777Z" fill="#555555"/>
<path d="M70.9659 3.14924C70.6244 3.60751 70.2116 4.00725 69.7435 4.33304C69.7435 4.45275 69.7435 4.57246 69.7435 4.69882C69.7473 6.87275 68.8841 8.95725 67.3475 10.485C65.8109 12.0128 63.7295 12.8561 61.5698 12.8258C60.3212 12.83 59.0886 12.5432 57.9686 11.9878C57.9082 11.9613 57.8692 11.9012 57.8695 11.8349V11.7617C57.8695 11.6662 57.9464 11.5888 58.0413 11.5888C59.2686 11.5481 60.4521 11.12 61.4244 10.3651C60.3135 10.3426 59.314 9.68055 58.854 8.66256C58.8308 8.60696 58.838 8.54318 58.8731 8.49428C58.9082 8.44538 58.9661 8.41842 59.0258 8.42314C59.3634 8.45728 59.7044 8.42567 60.0302 8.33003C58.8039 8.07394 57.8824 7.04973 57.7505 5.79617C57.7458 5.73603 57.7726 5.67778 57.8212 5.64247C57.8698 5.60715 57.9332 5.59987 57.9884 5.62325C58.3175 5.76934 58.6728 5.84628 59.0324 5.84937C57.9579 5.13985 57.4937 3.79031 57.9025 2.56399C57.9447 2.44483 58.0461 2.3568 58.1694 2.33225C58.2927 2.30771 58.4197 2.35026 58.5038 2.44428C59.9539 3.99684 61.9462 4.922 64.0609 5.0247C64.0067 4.80726 63.9801 4.58381 63.9816 4.35965C64.0014 3.18424 64.7243 2.13717 65.8119 1.70863C66.8995 1.28009 68.1366 1.55489 68.944 2.40438C69.4943 2.29891 70.0264 2.11294 70.5232 1.85238C70.5596 1.82953 70.6058 1.82953 70.6422 1.85238C70.6649 1.88901 70.6649 1.93546 70.6422 1.97209C70.4015 2.52649 69.995 2.99147 69.4792 3.30221C69.9308 3.24952 70.3745 3.14234 70.8007 2.98298C70.8366 2.95841 70.8838 2.95841 70.9197 2.98298C70.9497 2.99682 70.9722 3.02328 70.9811 3.05531C70.99 3.08735 70.9845 3.12171 70.9659 3.14924Z" fill="#555555"/>
</svg>
