<svg width="136" height="30" viewBox="0 0 136 30" fill="none" xmlns="http://www.w3.org/2000/svg">
<g clip-path="url(#clip0_492_125)">
<path d="M12 27C18.624 27 24 21.624 24 15C24 8.376 18.624 3 12 3C5.376 3 0 8.376 0 15C0 21.624 5.376 27 12 27ZM16.872 20.656V20.657C16.065 20.657 13.516 17.829 6.352 19.297C6.163 19.346 5.916 19.423 5.776 19.423C4.861 19.423 4.686 18.054 5.67 17.845C9.633 16.97 13.683 17.047 17.137 19.113C17.961 19.639 17.611 20.656 16.872 20.656ZM18.175 17.483C18.062 17.453 18.095 17.552 17.578 17.28C14.553 15.49 10.045 14.768 6.033 15.857C5.801 15.92 5.675 15.983 5.457 15.983C4.386 15.983 4.102 14.372 5.269 14.043C9.985 12.718 15.044 13.491 18.566 15.586C18.958 15.818 19.113 16.119 19.113 16.539C19.108 17.061 18.702 17.483 18.175 17.483ZM4.548 9.998C9.071 8.674 15.916 9.092 20.172 11.576C21.263 12.205 20.834 13.796 19.674 13.796L19.673 13.795C19.421 13.795 19.266 13.732 19.048 13.606C15.605 11.55 9.444 11.057 5.458 12.17C5.283 12.218 5.065 12.295 4.833 12.295C4.194 12.295 3.706 11.796 3.706 11.153C3.706 10.496 4.113 10.124 4.548 9.998Z" fill="#222222"/>
</g>
<g clip-path="url(#clip1_492_125)">
<path d="M79.3125 13.75C78.9788 13.75 78.6513 13.7862 78.335 13.8525C77.9138 9.59125 74.3075 6.25 69.9375 6.25C69.42 6.25 69 6.67 69 7.1875V22.1875C69 22.705 69.42 23.125 69.9375 23.125H79.3125C81.8988 23.125 84 21.0237 84 18.4375C84 15.8537 81.8988 13.75 79.3125 13.75Z" fill="#222222"/>
<path d="M65.25 9.0625V22.1875C65.25 22.705 65.67 23.125 66.1875 23.125C66.705 23.125 67.125 22.705 67.125 22.1875V9.0625C67.125 8.545 66.705 8.125 66.1875 8.125C65.67 8.125 65.25 8.545 65.25 9.0625Z" fill="#222222"/>
<path d="M61.5 12.8125V22.1875C61.5 22.705 61.92 23.125 62.4375 23.125C62.955 23.125 63.375 22.705 63.375 22.1875V12.8125C63.375 12.295 62.955 11.875 62.4375 11.875C61.92 11.875 61.5 12.295 61.5 12.8125Z" fill="#222222"/>
<path d="M57.75 22.1875C57.75 22.705 58.17 23.125 58.6875 23.125C59.205 23.125 59.625 22.705 59.625 22.1875V12.8125C59.625 12.295 59.205 11.875 58.6875 11.875C58.17 11.875 57.75 12.295 57.75 12.8125V22.1875Z" fill="#222222"/>
<path d="M54.9375 23.125C55.455 23.125 55.875 22.705 55.875 22.1875V16.5625C55.875 16.045 55.455 15.625 54.9375 15.625C54.42 15.625 54 16.045 54 16.5625V22.1875C54 22.705 54.42 23.125 54.9375 23.125Z" fill="#222222"/>
</g>
<path d="M121.234 24.9999C117.275 24.9794 114 17.6879 114 13.9745C114 7.90873 119.043 6.58077 120.987 6.58077C121.863 6.58077 122.798 6.89112 123.623 7.16576C124.2 7.35734 124.797 7.5551 125.129 7.5551C125.327 7.5551 125.795 7.38687 126.209 7.23926C127.09 6.92272 128.186 6.5293 129.463 6.5293C129.466 6.5293 129.469 6.5293 129.471 6.5293C130.425 6.5293 133.316 6.71811 135.054 9.07328L135.461 9.62533L134.875 10.0243C134.038 10.5942 132.511 11.6338 132.511 13.693C132.511 16.132 134.24 17.0699 135.072 17.5211C135.438 17.7202 135.818 17.9255 135.818 18.3746C135.818 18.6678 133.224 24.9636 129.458 24.9636C128.537 24.9636 127.885 24.7136 127.31 24.4932C126.729 24.27 126.228 24.0778 125.399 24.0778C124.979 24.0778 124.447 24.257 123.885 24.4472C123.116 24.706 122.247 24.9999 121.26 24.9999H121.234Z" fill="#222222"/>
<path d="M129.861 1C129.959 4.19105 127.429 6.40485 124.903 6.26601C124.487 3.71944 127.429 1 129.861 1Z" fill="#222222"/>
<defs>
<clipPath id="clip0_492_125">
<rect width="24" height="24" fill="white" transform="translate(0 3)"/>
</clipPath>
<clipPath id="clip1_492_125">
<rect width="30" height="30" fill="white" transform="translate(54)"/>
</clipPath>
</defs>
</svg>
